<mxfile host="app.diagrams.net" modified="2022-05-30T04:17:25.094Z" agent="5.0 (Windows NT 6.3; Win64; x64) AppleWebKit/537.36 (KHTML, like Gecko) Chrome/101.0.4951.67 Safari/537.36" etag="1yoINMJL1fwsPwwbTwm7" version="18.0.3" type="github">
  <diagram id="u3hgFq9jdc4-vKwPzVh-" name="Page-1">
    <mxGraphModel dx="886" dy="386" grid="1" gridSize="10" guides="1" tooltips="1" connect="1" arrows="1" fold="1" page="1" pageScale="1" pageWidth="827" pageHeight="1169" math="0" shadow="0">
      <root>
        <mxCell id="0" />
        <mxCell id="1" parent="0" />
        <mxCell id="Ykntgji3FukUq8skyxaY-11" style="edgeStyle=orthogonalEdgeStyle;rounded=0;orthogonalLoop=1;jettySize=auto;html=1;exitX=0.5;exitY=1;exitDx=0;exitDy=0;entryX=0.5;entryY=0;entryDx=0;entryDy=0;entryPerimeter=0;fontSize=12;" edge="1" parent="1" source="Ykntgji3FukUq8skyxaY-1" target="Ykntgji3FukUq8skyxaY-4">
          <mxGeometry relative="1" as="geometry" />
        </mxCell>
        <mxCell id="Ykntgji3FukUq8skyxaY-1" value="&lt;font style=&quot;font-size: 18px;&quot;&gt;Início&lt;/font&gt;" style="ellipse;whiteSpace=wrap;html=1;fillColor=#E6E6E6;" vertex="1" parent="1">
          <mxGeometry x="20" y="10" width="120" height="80" as="geometry" />
        </mxCell>
        <mxCell id="Ykntgji3FukUq8skyxaY-9" style="edgeStyle=orthogonalEdgeStyle;rounded=0;orthogonalLoop=1;jettySize=auto;html=1;entryX=0.507;entryY=0.207;entryDx=0;entryDy=0;entryPerimeter=0;fontSize=12;" edge="1" parent="1" source="Ykntgji3FukUq8skyxaY-4" target="Ykntgji3FukUq8skyxaY-8">
          <mxGeometry relative="1" as="geometry" />
        </mxCell>
        <mxCell id="Ykntgji3FukUq8skyxaY-4" value="&lt;font style=&quot;font-size: 12px;&quot;&gt;Informe a data &lt;br&gt;atual&lt;/font&gt;" style="strokeWidth=2;html=1;shape=mxgraph.flowchart.display;whiteSpace=wrap;fontSize=18;fillColor=#E6E6E6;" vertex="1" parent="1">
          <mxGeometry x="20" y="120" width="123" height="50" as="geometry" />
        </mxCell>
        <mxCell id="Ykntgji3FukUq8skyxaY-13" style="edgeStyle=orthogonalEdgeStyle;rounded=0;orthogonalLoop=1;jettySize=auto;html=1;exitX=0.5;exitY=1;exitDx=0;exitDy=0;entryX=0.5;entryY=0;entryDx=0;entryDy=0;entryPerimeter=0;fontSize=12;" edge="1" parent="1" source="Ykntgji3FukUq8skyxaY-8" target="Ykntgji3FukUq8skyxaY-12">
          <mxGeometry relative="1" as="geometry" />
        </mxCell>
        <mxCell id="Ykntgji3FukUq8skyxaY-8" value="&lt;br&gt;Data atual" style="html=1;strokeWidth=2;shape=manualInput;whiteSpace=wrap;rounded=1;size=26;arcSize=11;fontSize=12;fillColor=#E6E6E6;" vertex="1" parent="1">
          <mxGeometry x="31.5" y="200" width="100" height="60" as="geometry" />
        </mxCell>
        <mxCell id="Ykntgji3FukUq8skyxaY-16" style="edgeStyle=orthogonalEdgeStyle;rounded=0;orthogonalLoop=1;jettySize=auto;html=1;exitX=1;exitY=0.5;exitDx=0;exitDy=0;exitPerimeter=0;entryX=0;entryY=0.5;entryDx=0;entryDy=0;entryPerimeter=0;fontFamily=Helvetica;fontSize=10;" edge="1" parent="1" source="Ykntgji3FukUq8skyxaY-12" target="Ykntgji3FukUq8skyxaY-14">
          <mxGeometry relative="1" as="geometry" />
        </mxCell>
        <mxCell id="Ykntgji3FukUq8skyxaY-22" style="edgeStyle=orthogonalEdgeStyle;rounded=0;orthogonalLoop=1;jettySize=auto;html=1;exitX=0.5;exitY=1;exitDx=0;exitDy=0;exitPerimeter=0;entryX=0.5;entryY=0;entryDx=0;entryDy=0;entryPerimeter=0;fontFamily=Helvetica;fontSize=10;" edge="1" parent="1" source="Ykntgji3FukUq8skyxaY-12" target="Ykntgji3FukUq8skyxaY-21">
          <mxGeometry relative="1" as="geometry" />
        </mxCell>
        <mxCell id="Ykntgji3FukUq8skyxaY-12" value="Data posterior?" style="strokeWidth=2;html=1;shape=mxgraph.flowchart.decision;whiteSpace=wrap;fontSize=12;fillColor=#E6E6E6;" vertex="1" parent="1">
          <mxGeometry x="40" y="290" width="80" height="80" as="geometry" />
        </mxCell>
        <mxCell id="Ykntgji3FukUq8skyxaY-20" style="edgeStyle=orthogonalEdgeStyle;rounded=0;orthogonalLoop=1;jettySize=auto;html=1;exitX=1;exitY=0.5;exitDx=0;exitDy=0;exitPerimeter=0;entryX=0.5;entryY=1;entryDx=0;entryDy=0;fontFamily=Helvetica;fontSize=10;" edge="1" parent="1" source="Ykntgji3FukUq8skyxaY-14" target="Ykntgji3FukUq8skyxaY-19">
          <mxGeometry relative="1" as="geometry" />
        </mxCell>
        <mxCell id="Ykntgji3FukUq8skyxaY-14" value="&lt;div style=&quot;box-sizing: border-box; color: rgb(13, 37, 50); text-align: start;&quot;&gt;&lt;span style=&quot;box-sizing: border-box;&quot;&gt;&lt;font style=&quot;font-size: 9px;&quot;&gt;&amp;nbsp;&lt;/font&gt;&lt;/span&gt;&lt;/div&gt;&lt;div style=&quot;box-sizing: border-box; color: rgb(13, 37, 50); text-align: start;&quot;&gt;&lt;span style=&quot;box-sizing: border-box;&quot;&gt;&lt;font style=&quot;font-size: 10px;&quot;&gt;&amp;nbsp; &amp;nbsp; &amp;nbsp; &amp;nbsp;Cadastro não será&amp;nbsp;&lt;/font&gt;&lt;/span&gt;&lt;/div&gt;&lt;div style=&quot;box-sizing: border-box; color: rgb(13, 37, 50); text-align: start;&quot;&gt;&lt;span style=&quot;box-sizing: border-box;&quot;&gt;&lt;font style=&quot;font-size: 10px;&quot;&gt;permitido por data inválida.&lt;/font&gt;&lt;/span&gt;&lt;/div&gt;&lt;div&gt;&lt;span style=&quot;box-sizing: border-box; font-weight: 700;&quot;&gt;&lt;br&gt;&lt;/span&gt;&lt;/div&gt;" style="strokeWidth=2;html=1;shape=mxgraph.flowchart.display;whiteSpace=wrap;fontSize=12;fillColor=#E6E6E6;" vertex="1" parent="1">
          <mxGeometry x="160" y="292.5" width="160" height="75" as="geometry" />
        </mxCell>
        <mxCell id="Ykntgji3FukUq8skyxaY-17" value="NÃO" style="text;html=1;align=center;verticalAlign=middle;resizable=0;points=[];autosize=1;strokeColor=none;fillColor=none;fontSize=10;fontFamily=Helvetica;" vertex="1" parent="1">
          <mxGeometry x="120" y="310" width="40" height="20" as="geometry" />
        </mxCell>
        <mxCell id="Ykntgji3FukUq8skyxaY-19" value="FIM" style="ellipse;whiteSpace=wrap;html=1;fontFamily=Helvetica;fontSize=10;fillColor=#E6E6E6;" vertex="1" parent="1">
          <mxGeometry x="590" y="30" width="120" height="80" as="geometry" />
        </mxCell>
        <mxCell id="Ykntgji3FukUq8skyxaY-26" style="edgeStyle=orthogonalEdgeStyle;rounded=0;orthogonalLoop=1;jettySize=auto;html=1;entryX=0.504;entryY=0.193;entryDx=0;entryDy=0;entryPerimeter=0;fontFamily=Helvetica;fontSize=10;" edge="1" parent="1" source="Ykntgji3FukUq8skyxaY-21" target="Ykntgji3FukUq8skyxaY-23">
          <mxGeometry relative="1" as="geometry" />
        </mxCell>
        <mxCell id="Ykntgji3FukUq8skyxaY-21" value="Informe a idade" style="strokeWidth=2;html=1;shape=mxgraph.flowchart.display;whiteSpace=wrap;fontFamily=Helvetica;fontSize=10;fillColor=#E6E6E6;" vertex="1" parent="1">
          <mxGeometry x="30" y="400" width="100" height="60" as="geometry" />
        </mxCell>
        <mxCell id="Ykntgji3FukUq8skyxaY-29" style="edgeStyle=orthogonalEdgeStyle;rounded=0;orthogonalLoop=1;jettySize=auto;html=1;exitX=0.5;exitY=1;exitDx=0;exitDy=0;entryX=0.5;entryY=0;entryDx=0;entryDy=0;entryPerimeter=0;fontFamily=Helvetica;fontSize=10;" edge="1" parent="1" source="Ykntgji3FukUq8skyxaY-23" target="Ykntgji3FukUq8skyxaY-27">
          <mxGeometry relative="1" as="geometry" />
        </mxCell>
        <mxCell id="Ykntgji3FukUq8skyxaY-23" value="&lt;br&gt;Idade do participante" style="html=1;strokeWidth=2;shape=manualInput;whiteSpace=wrap;rounded=1;size=26;arcSize=11;fontFamily=Helvetica;fontSize=10;fillColor=#E6E6E6;" vertex="1" parent="1">
          <mxGeometry x="31.5" y="480" width="100" height="60" as="geometry" />
        </mxCell>
        <mxCell id="Ykntgji3FukUq8skyxaY-31" style="edgeStyle=orthogonalEdgeStyle;rounded=0;orthogonalLoop=1;jettySize=auto;html=1;entryX=0;entryY=0.5;entryDx=0;entryDy=0;entryPerimeter=0;fontFamily=Helvetica;fontSize=10;" edge="1" parent="1" source="Ykntgji3FukUq8skyxaY-27" target="Ykntgji3FukUq8skyxaY-30">
          <mxGeometry relative="1" as="geometry" />
        </mxCell>
        <mxCell id="Ykntgji3FukUq8skyxaY-56" style="edgeStyle=orthogonalEdgeStyle;rounded=0;orthogonalLoop=1;jettySize=auto;html=1;entryX=0.5;entryY=0;entryDx=0;entryDy=0;fontFamily=Helvetica;fontSize=12;" edge="1" parent="1" source="Ykntgji3FukUq8skyxaY-27" target="Ykntgji3FukUq8skyxaY-50">
          <mxGeometry relative="1" as="geometry" />
        </mxCell>
        <mxCell id="Ykntgji3FukUq8skyxaY-27" value="Maior de 18?" style="strokeWidth=2;html=1;shape=mxgraph.flowchart.decision;whiteSpace=wrap;fontFamily=Helvetica;fontSize=10;fillColor=#E6E6E6;" vertex="1" parent="1">
          <mxGeometry x="35.75" y="560" width="88.5" height="80" as="geometry" />
        </mxCell>
        <mxCell id="Ykntgji3FukUq8skyxaY-32" style="edgeStyle=orthogonalEdgeStyle;rounded=0;orthogonalLoop=1;jettySize=auto;html=1;fontFamily=Helvetica;fontSize=10;" edge="1" parent="1" source="Ykntgji3FukUq8skyxaY-30">
          <mxGeometry relative="1" as="geometry">
            <mxPoint x="650" y="325.2" as="targetPoint" />
          </mxGeometry>
        </mxCell>
        <mxCell id="Ykntgji3FukUq8skyxaY-30" value="Cadastro não é&amp;nbsp;&lt;br&gt;permitido pela idade" style="strokeWidth=2;html=1;shape=mxgraph.flowchart.display;whiteSpace=wrap;fontFamily=Helvetica;fontSize=10;fillColor=#E6E6E6;" vertex="1" parent="1">
          <mxGeometry x="210" y="565" width="110" height="70" as="geometry" />
        </mxCell>
        <mxCell id="Ykntgji3FukUq8skyxaY-33" value="NÃO" style="text;html=1;align=center;verticalAlign=middle;resizable=0;points=[];autosize=1;strokeColor=none;fillColor=none;fontSize=10;fontFamily=Helvetica;" vertex="1" parent="1">
          <mxGeometry x="143" y="585" width="40" height="20" as="geometry" />
        </mxCell>
        <mxCell id="Ykntgji3FukUq8skyxaY-34" value="SIM" style="text;html=1;align=center;verticalAlign=middle;resizable=0;points=[];autosize=1;strokeColor=none;fillColor=none;fontSize=10;fontFamily=Helvetica;" vertex="1" parent="1">
          <mxGeometry x="80" y="370" width="30" height="20" as="geometry" />
        </mxCell>
        <mxCell id="Ykntgji3FukUq8skyxaY-40" style="edgeStyle=orthogonalEdgeStyle;rounded=0;orthogonalLoop=1;jettySize=auto;html=1;entryX=0.5;entryY=0;entryDx=0;entryDy=0;entryPerimeter=0;fontFamily=Helvetica;fontSize=12;" edge="1" parent="1" source="Ykntgji3FukUq8skyxaY-37" target="Ykntgji3FukUq8skyxaY-38">
          <mxGeometry relative="1" as="geometry" />
        </mxCell>
        <mxCell id="Ykntgji3FukUq8skyxaY-37" value="&lt;font style=&quot;font-size: 12px;&quot;&gt;Informe o nome&lt;/font&gt;" style="strokeWidth=2;html=1;shape=mxgraph.flowchart.display;whiteSpace=wrap;fontFamily=Helvetica;fontSize=10;fillColor=#E6E6E6;" vertex="1" parent="1">
          <mxGeometry x="24.25" y="740" width="100" height="60" as="geometry" />
        </mxCell>
        <mxCell id="Ykntgji3FukUq8skyxaY-42" style="edgeStyle=orthogonalEdgeStyle;rounded=0;orthogonalLoop=1;jettySize=auto;html=1;exitX=1;exitY=0.5;exitDx=0;exitDy=0;exitPerimeter=0;entryX=0;entryY=0.5;entryDx=0;entryDy=0;entryPerimeter=0;fontFamily=Helvetica;fontSize=12;" edge="1" parent="1" source="Ykntgji3FukUq8skyxaY-38" target="Ykntgji3FukUq8skyxaY-41">
          <mxGeometry relative="1" as="geometry" />
        </mxCell>
        <mxCell id="Ykntgji3FukUq8skyxaY-44" style="edgeStyle=orthogonalEdgeStyle;rounded=0;orthogonalLoop=1;jettySize=auto;html=1;fontFamily=Helvetica;fontSize=12;" edge="1" parent="1" source="Ykntgji3FukUq8skyxaY-38">
          <mxGeometry relative="1" as="geometry">
            <mxPoint x="74.25" y="980" as="targetPoint" />
          </mxGeometry>
        </mxCell>
        <mxCell id="Ykntgji3FukUq8skyxaY-38" value="Há 100 &lt;br&gt;participantes?" style="strokeWidth=2;html=1;shape=mxgraph.flowchart.decision;whiteSpace=wrap;fontFamily=Helvetica;fontSize=12;fillColor=#E6E6E6;" vertex="1" parent="1">
          <mxGeometry x="24.25" y="830" width="100" height="100" as="geometry" />
        </mxCell>
        <mxCell id="Ykntgji3FukUq8skyxaY-47" style="edgeStyle=orthogonalEdgeStyle;rounded=0;orthogonalLoop=1;jettySize=auto;html=1;fontFamily=Helvetica;fontSize=12;" edge="1" parent="1" source="Ykntgji3FukUq8skyxaY-41">
          <mxGeometry relative="1" as="geometry">
            <mxPoint x="650" y="588" as="targetPoint" />
          </mxGeometry>
        </mxCell>
        <mxCell id="Ykntgji3FukUq8skyxaY-41" value="Cadastro não será permitido por ter excedido o limite" style="strokeWidth=2;html=1;shape=mxgraph.flowchart.display;whiteSpace=wrap;fontFamily=Helvetica;fontSize=12;fillColor=#E6E6E6;" vertex="1" parent="1">
          <mxGeometry x="170" y="845" width="150" height="70" as="geometry" />
        </mxCell>
        <mxCell id="Ykntgji3FukUq8skyxaY-43" value="SIM" style="text;html=1;align=center;verticalAlign=middle;resizable=0;points=[];autosize=1;strokeColor=none;fillColor=none;fontSize=12;fontFamily=Helvetica;" vertex="1" parent="1">
          <mxGeometry x="124.25" y="860" width="40" height="20" as="geometry" />
        </mxCell>
        <mxCell id="Ykntgji3FukUq8skyxaY-45" value="NÃO" style="text;html=1;align=center;verticalAlign=middle;resizable=0;points=[];autosize=1;strokeColor=none;fillColor=none;fontSize=12;fontFamily=Helvetica;" vertex="1" parent="1">
          <mxGeometry x="75" y="940" width="40" height="20" as="geometry" />
        </mxCell>
        <mxCell id="Ykntgji3FukUq8skyxaY-48" style="edgeStyle=orthogonalEdgeStyle;rounded=0;orthogonalLoop=1;jettySize=auto;html=1;fontFamily=Helvetica;fontSize=12;" edge="1" parent="1" source="Ykntgji3FukUq8skyxaY-46">
          <mxGeometry relative="1" as="geometry">
            <mxPoint x="650" y="880" as="targetPoint" />
          </mxGeometry>
        </mxCell>
        <mxCell id="Ykntgji3FukUq8skyxaY-46" value="Cadastro permitido e finalizado&amp;nbsp;" style="strokeWidth=2;html=1;shape=mxgraph.flowchart.display;whiteSpace=wrap;fontFamily=Helvetica;fontSize=12;fillColor=#E6E6E6;" vertex="1" parent="1">
          <mxGeometry x="10" y="980" width="140" height="70" as="geometry" />
        </mxCell>
        <mxCell id="Ykntgji3FukUq8skyxaY-49" value="SIM" style="text;html=1;align=center;verticalAlign=middle;resizable=0;points=[];autosize=1;strokeColor=none;fillColor=none;fontSize=12;fontFamily=Helvetica;" vertex="1" parent="1">
          <mxGeometry x="75" y="640" width="40" height="20" as="geometry" />
        </mxCell>
        <mxCell id="Ykntgji3FukUq8skyxaY-55" style="edgeStyle=orthogonalEdgeStyle;rounded=0;orthogonalLoop=1;jettySize=auto;html=1;entryX=0.558;entryY=0;entryDx=0;entryDy=0;entryPerimeter=0;fontFamily=Helvetica;fontSize=12;" edge="1" parent="1" source="Ykntgji3FukUq8skyxaY-50" target="Ykntgji3FukUq8skyxaY-37">
          <mxGeometry relative="1" as="geometry" />
        </mxCell>
        <mxCell id="Ykntgji3FukUq8skyxaY-50" value="Lista de palestrantes e participantes" style="rounded=1;whiteSpace=wrap;html=1;fontFamily=Helvetica;fontSize=12;fillColor=#E6E6E6;" vertex="1" parent="1">
          <mxGeometry x="20" y="670" width="120" height="50" as="geometry" />
        </mxCell>
      </root>
    </mxGraphModel>
  </diagram>
</mxfile>
